<svg version="1.0" xmlns="http://www.w3.org/2000/svg"
 width="166" height="166" viewBox="0 0 234.492661 218.030989"
 preserveAspectRatio="xMidYMid meet">
<metadata>
Created by potrace 1.12, written by Peter Selinger 2001-2015
</metadata>
<g transform="translate(-2.017089,222.530989) scale(0.100000,-0.100000)"
fill="#000000" stroke="none">
<path d="M1695 2220 c-341 -61 -555 -393 -464 -720 29 -107 64 -164 149 -251
230 -233 576 -235 806 -5 105 105 158 219 171 367 20 255 -156 512 -404 589
-75 23 -190 32 -258 20z m-55 -225 c80 -77 54 -212 -46 -245 -151 -50 -261
139 -142 246 33 30 46 34 106 30 42 -2 59 -9 82 -31z m450 20 c46 -24 74 -71
74 -127 0 -142 -191 -200 -266 -80 -41 66 -19 163 45 202 38 24 106 26 147 5z
m-257 -266 c53 -24 76 -114 42 -165 -19 -29 -53 -44 -101 -44 -62 0 -115 73
-100 136 4 15 20 39 36 55 31 31 79 38 123 18z m-226 -208 c137 -63 87 -276
-63 -273 -107 3 -174 111 -128 208 36 75 112 100 191 65z m466 5 c105 -44 124
-178 35 -249 -68 -55 -173 -33 -213 43 -24 47 -19 117 11 158 44 57 105 75
167 48z"/>
<path d="M433 1965 c-239 -52 -414 -267 -413 -508 1 -327 300 -579 609 -513
115 24 193 66 270 143 77 78 124 161 147 259 64 273 -123 560 -403 619 -82 18
-129 18 -210 0z m-43 -181 c87 -52 77 -191 -17 -230 -108 -46 -221 73 -168
176 34 66 120 92 185 54z m430 0 c92 -55 75 -198 -28 -234 -37 -13 -47 -13
-84 0 -100 35 -118 161 -32 229 33 26 104 28 144 5z m-221 -250 c38 -32 49
-80 27 -122 -30 -59 -102 -71 -155 -26 -26 22 -31 33 -31 71 0 90 91 135 159
77z m-188 -203 c34 -33 39 -45 39 -82 0 -56 -16 -87 -59 -116 -110 -74 -246
50 -186 168 22 41 71 69 124 69 37 0 49 -6 82 -39z m409 23 c39 -24 60 -65 60
-118 0 -98 -110 -158 -193 -107 -86 53 -84 183 4 228 34 18 96 16 129 -3z"/>
<path d="M1078 1252 c-10 -26 -35 -75 -56 -107 -102 -155 -259 -250 -445 -270
l-67 -7 0 -262 c0 -287 4 -306 63 -350 28 -21 39 -21 665 -24 709 -3 703 -3
743 62 18 29 19 54 19 395 0 342 -1 363 -17 356 -229 -87 -532 4 -689 208
l-37 47 -81 0 -81 0 -17 -48z m97 -256 c85 -65 61 -203 -41 -236 -127 -42
-232 101 -154 209 45 64 131 76 195 27z m715 -266 l0 -210 -305 0 -305 0 0
210 0 210 305 0 305 0 0 -210z m-1105 -240 c37 -41 -14 -107 -63 -81 -29 16
-37 47 -18 76 20 30 56 32 81 5z m181 12 c59 -39 7 -126 -55 -92 -27 14 -32
60 -9 88 11 13 47 16 64 4z m198 -5 c37 -27 13 -97 -33 -97 -23 0 -51 31 -51
56 0 45 47 68 84 41z"/>
<path d="M1055 958 c-31 -16 -45 -39 -45 -70 0 -39 40 -78 80 -78 19 0 40 9
55 25 64 63 -11 167 -90 123z"/>
<path d="M1338 730 l3 -150 243 0 c133 0 245 2 247 4 2 2 3 70 1 150 l-3 146
-247 0 -247 0 3 -150z m420 58 l3 -28 -175 0 -176 0 0 23 c0 13 3 27 7 31 4 3
81 5 172 4 l166 -3 3 -27z m0 -111 l3 -27 -175 0 -176 0 0 25 c0 23 4 24 63
28 34 2 112 3 172 3 l110 -2 3 -27z"/>
<path d="M2235 980 c-73 -48 -98 -59 -132 -59 l-43 -1 0 -165 0 -165 44 0 c35
0 63 -11 132 -50 137 -80 129 -94 129 225 0 320 8 306 -130 215z"/>
<path d="M299 826 c-3 -4 -4 -146 0 -268 1 -36 2 -38 36 -38 19 0 36 5 36 10
1 6 2 16 3 23 0 6 18 13 39 15 l37 3 0 110 0 109 -40 0 c-33 0 -40 3 -40 20 0
16 -7 20 -33 20 -19 0 -36 -2 -38 -4z"/>
<path d="M812 168 c-20 -26 -42 -78 -42 -100 l0 -23 486 2 c268 1 488 4 490 6
10 9 -29 108 -46 117 -30 16 -875 14 -888 -2z"/>
</g>
</svg>
